<?xml version="1.0" encoding="utf-8"?>
<!-- Generator: Adobe Illustrator 15.1.0, SVG Export Plug-In . SVG Version: 6.00 Build 0)  -->
<!DOCTYPE svg PUBLIC "-//W3C//DTD SVG 1.1//EN" "http://www.w3.org/Graphics/SVG/1.1/DTD/svg11.dtd">
<svg version="1.1" id="Vrstva_1" focusable="false" xmlns="http://www.w3.org/2000/svg" xmlns:xlink="http://www.w3.org/1999/xlink"
	 x="0px" y="0px" width="612px" height="535.5px" viewBox="0 128.25 612 535.5" enable-background="new 0 128.25 612 535.5"
	 xml:space="preserve">
<path d="M554.625,663.75H57.375C25.687,663.75,0,638.063,0,606.375v-420.75c0-31.688,25.688-57.375,57.375-57.375h497.25
	c31.688,0,57.375,25.687,57.375,57.375v420.75C612,638.063,586.313,663.75,554.625,663.75z M153,233.438
	c-26.405,0-47.813,21.406-47.813,47.813c0,26.405,21.407,47.813,47.813,47.813c26.406,0,47.813-21.407,47.813-47.813
	C200.812,254.844,179.406,233.438,153,233.438z M153,348.188c-26.405,0-47.813,21.406-47.813,47.813
	c0,26.405,21.407,47.813,47.813,47.813c26.406,0,47.813-21.407,47.813-47.813C200.812,369.594,179.406,348.188,153,348.188z
	 M153,462.938c-26.405,0-47.813,21.406-47.813,47.813c0,26.405,21.407,47.813,47.813,47.813c26.406,0,47.813-21.407,47.813-47.813
	C200.812,484.344,179.406,462.938,153,462.938z M497.25,300.375v-38.25c0-7.922-6.422-14.344-14.344-14.344H243.844
	c-7.921,0-14.344,6.422-14.344,14.344v38.25c0,7.921,6.423,14.344,14.344,14.344h239.063
	C490.828,314.719,497.25,308.296,497.25,300.375z M497.25,415.125v-38.25c0-7.922-6.422-14.344-14.344-14.344H243.844
	c-7.921,0-14.344,6.422-14.344,14.344v38.25c0,7.921,6.423,14.344,14.344,14.344h239.063
	C490.828,429.469,497.25,423.046,497.25,415.125z M497.25,529.875v-38.25c0-7.922-6.422-14.344-14.344-14.344H243.844
	c-7.921,0-14.344,6.422-14.344,14.344v38.25c0,7.921,6.423,14.344,14.344,14.344h239.063
	C490.828,544.219,497.25,537.796,497.25,529.875z"/>
</svg>
