<?xml version="1.0" encoding="utf-8"?>
<!-- Generator: Adobe Illustrator 15.1.0, SVG Export Plug-In . SVG Version: 6.00 Build 0)  -->
<!DOCTYPE svg PUBLIC "-//W3C//DTD SVG 1.1//EN" "http://www.w3.org/Graphics/SVG/1.1/DTD/svg11.dtd">
<svg version="1.1" id="Vrstva_1" focusable="false" xmlns="http://www.w3.org/2000/svg" xmlns:xlink="http://www.w3.org/1999/xlink"
	 x="0px" y="0px" width="612px" height="612px" viewBox="0 90 612 612" enable-background="new 0 90 612 612" xml:space="preserve">
<path d="M546.428,90H65.571C29.371,90,0,119.37,0,155.572v480.856C0,672.629,29.371,702,65.571,702h480.857
	C582.63,702,612,672.629,612,636.428V155.572C612,119.37,582.63,90,546.428,90z M502.715,434.25c0,9.016-7.377,16.393-16.393,16.393
	H360.643v125.679c0,9.016-7.377,16.393-16.394,16.393h-76.5c-9.016,0-16.393-7.377-16.393-16.393V450.643H125.678
	c-9.016,0-16.393-7.377-16.393-16.393v-76.5c0-9.017,7.377-16.394,16.393-16.394h125.679V215.679
	c0-9.017,7.377-16.394,16.393-16.394h76.5c9.017,0,16.394,7.377,16.394,16.394v125.678h125.679c9.016,0,16.393,7.377,16.393,16.394
	V434.25z"/>
</svg>
