<?xml version="1.0" encoding="utf-8"?>
<!-- Generator: Adobe Illustrator 15.1.0, SVG Export Plug-In . SVG Version: 6.00 Build 0)  -->
<!DOCTYPE svg PUBLIC "-//W3C//DTD SVG 1.1//EN" "http://www.w3.org/Graphics/SVG/1.1/DTD/svg11.dtd">
<svg version="1.1" id="Vrstva_1" focusable="false" xmlns="http://www.w3.org/2000/svg" xmlns:xlink="http://www.w3.org/1999/xlink"
	 x="0px" y="0px" width="612px" height="489.6px" viewBox="0 151.2 612 489.6" enable-background="new 0 151.2 612 489.6"
	 xml:space="preserve">
<path d="M595.075,410.44l-110.16-43.031c-3.921-1.53-12.049-3.538-21.229,0l-110.16,43.031
	c-10.232,4.016-16.926,13.387-16.926,23.811c0,106.717,65.694,180.539,127.086,204.541c9.18,3.538,17.212,1.53,21.229,0
	C533.97,619.666,612,553.303,612,434.25C612,423.826,605.306,414.455,595.075,410.44z M474.301,593.369V412.543l91.321,35.668
	C560.267,531.5,507.386,577.687,474.301,593.369L474.301,593.369z M214.2,396c67.607,0,122.4-54.793,122.4-122.4
	c0-67.606-54.793-122.399-122.4-122.399c-67.606,0-122.4,54.793-122.4,122.399C91.8,341.207,146.594,396,214.2,396z M306,434.25
	c0-2.391,0.766-4.591,1.053-6.886c-2.391-0.096-4.686-0.765-7.172-0.765h-15.97c-21.229,9.754-44.849,15.3-69.711,15.3
	s-48.386-5.546-69.711-15.3H128.52C57.566,426.6,0,484.166,0,555.119v39.78c0,25.341,20.56,45.9,45.9,45.9h336.6
	c6.503,0,12.719-1.435,18.36-3.825C349.222,595.951,306,525.38,306,434.25z"/>
</svg>
